<!DOCTYPE svg  PUBLIC '-//W3C//DTD SVG 1.1//EN'  'http://www.w3.org/Graphics/SVG/1.1/DTD/svg11.dtd'>
<!-- Creator: CorelDRAW 2020 (64-Bit) -->
<svg clip-rule="evenodd" fill-rule="evenodd" image-rendering="optimizeQuality" shape-rendering="geometricPrecision" text-rendering="geometricPrecision" version="1.1" viewBox="1856 11418 17259 6853" xml:space="preserve" xmlns="http://www.w3.org/2000/svg">
 <defs>
  <style type="text/css">
   <![CDATA[
    .fil0{fill:#F4ECD8}
   ]]>
  </style>
 </defs>
 <g id="Слой_x0020_1">
  
  <path class="fil0" d="m9192 12098c-58.87-101.3-215.7-309.8-309.3-360.4 11.9 100.9 43.52 209.7 56.79 323.6 38.88 333.6 38.76 746.2-17.13 1070-57.17 331.1-304.7 819.4-462.4 1052-110.8 163.8-222.8 284.4-342.1 414.7-85.5 93.32-320.3 306-369.4 387.6-175.7 291.7-64.41 327.9-158.2 414-34.47 31.66-67.26 51.04-106 78.23-159.5 111.9-142.2 447-200.6 547.9l-15.18-33.85c-2.64-10.07-4.28-24.56-5.48-35.05-3.28-28.59-4.81-58.97-4.89-87.76-0.75-288.6 167.9-620.3 303.8-857 81.16-141.4 163.2-275.4 248-421.4 325.9-561.2 766.9-1280 513.4-1983-50.1-138.8-163.4-364.4-283.3-464.1-116.4-96.82-290.6-144.2-446.3-135.8-334.1 18.09-672.9 231.6-867.3 461-190.9 225.3-332 664.3-355.2 974.4-13.64 182.5-41.21 449.5 43.14 597.7 41.14 72.26 112.3 107.7 134.1 195.7 23.29 93.89 2.72 203.4 56.03 273.6 54.24 71.36 129 78.57 118.5 213.8-6.42 82.19-70.47 220.2-15.33 284.6 81.33 42.93 215.6-127.3 246.8-177 97.68-155.4 36.09-178.4 43.43-262.9 2.77-31.87 16.63-53.27 22.09-87.82 21.98-139-58.88-256.5-27.42-387.5 25.77-107.3 98.77-207 110.9-319.8 24.46-227.7-176.4-488.1-83.76-729.9 73.22-191.2 237.1-398 386.6-477.1 253.4-134 414.6 128.3 469.5 323.7 72.2 256.8 1.43 499.7-90.66 715.5-133.7 313.4-454.8 786-649.8 1076-200.5 298.4-471.1 748.2-548.9 1178-88.81 490.9 90.55 1064 322.4 1363 391.3 504.8 1209 761.8 1850 737.1 152.9-5.89 381.3-52.17 484.2-161.7l97.62-111.5c151.3 41.31 354.2 154.1 449.5-14.02-123.6-91.58-278.5-87.67-180.4-361.2 76.41-213.1 92.76-269.9 76.48-524.5l44.12 40.4c152.1 158.4 386.6 248.3 606.1 191.5 62.41-16.16 156.3-50.29 189.7-106-115.9-30.96-235.9-121.9-282.6-201.2-75.34-128.1-23.09-261.7-0.28-397.8 25.07-149.6-98.54-390.6-178.6-520.1-14.84-24.03-80.33-121.8-83.4-145.7 202.4-25.24 355.8 70.37 473 154.2 172.6 123.4 247.8 323.8 270.9 347.7 19-388.6 14.18-620.5-141.2-942.8-89.63-185.9-165.4-277.3-288.5-400.7-61.32-61.45-68.98-73.45-143.2-128.4-28.86-21.36-58.45-37.18-78.47-65.49 475.8-102.9 688.4 89.6 906.7 59.98-7.53-37.67-108.2-157.2-136.3-191.5-29-35.37-49.98-57.06-75.13-89.76-24.88-32.37-51.27-56.98-76.71-88.43l-160.9-168.7c-174.5-157.2-381.2-295.2-627.7-352.5-233.5-54.22-356.6-14.34-557.2 43.49-7.85-61.38 26.32-220.2 35.79-292.9 63.25-486 59.61-1006-190.2-1435zm2100 4.9c-182.9 84.17-63.44 342.6 112.8 272.1 180.9-72.33 66.8-354.7-112.8-272.1zm828.9-4.21c-178.6 67.78-89.51 359 113.6 280.6 161.1-62.13 82.61-355.1-113.6-280.6zm-7044 4890c-37.57-39.7-78.63 6.42-102.6 25.86-139.8 113.4-232.4 114-243.5 233.3-18.04 193.7 209.4 247 396.4 229.3 351.6-33.23 497.1-351.4 607.2-663.1 169.9-480.7 254.8-1079 295-1606 13.75-180.6 37.26-429.5 28.58-606.9l-377.8 66.56c-6.89 507.2 8.53 998-24.21 1505-14.78 228.8-78.3 1143-367.4 1171 141.2-251.4 168.1-438.7 148.9-784.4-15.67-283.2-66.68-552.1-124.2-815.2-90.8-415.5-312.6-1165-330.1-1553 246.6-17.89 955.3-54.43 791.2-441-33.07-77.91-132-180.8-224.6-195.6-9.54 330-495.4 530.6-581.1 527.9-45.94-413.5-81.89-953.7 61.3-1329 92.82-243 277.3-234.4 390-17.38 86.63 166.9 121 394.3 145.9 601.9l401.1 1.74c-10.41-283.4-157.2-616.8-298.9-744.4-199.2-179.4-527.8-207.1-709.1 67.92-279.5 424.1-330.7 1167-311.2 1762 20.65 630.8 207 1155 409.8 1662 116.3 290.8 199.2 453.8 222 818.8 7.83 125.6 2.02 373.4-83.01 429.7-99.41 65.79-126.8-10.6-119-106.9 4.7-57.78 46.48-198-0.62-238.5zm6461 356.8c-43.37-99.81 23.96-251.2-3.05-363.2-75.41-25.19-80.06 14.56-199.5 96.92-72.64 50.1-147.2 57.84-156.8 167.6-17.45 199 213.7 248.4 397.8 229.4 354.9-36.73 504-363.4 606-665.8 167-494.8 256.1-1060 294.1-1597 11.86-167.8 42.77-455.8 27.87-613.4l-377 67.43c-11.27 617.9 28.35 1596-108.3 2192-40.67 177.2-128.6 455.8-282.5 485.1 21.79-49.05 55.07-90.91 78.94-154.1 22.36-59.22 39.12-116.7 51.08-182.4 156.3-858.3-401-2072-435.2-2819 248-17.47 516-36.5 701.4-155.1 264.6-169.2 22.54-443.4-134.9-482.5-11.5 287.1-339.6 469.4-581.9 535.2-23.56-433.3-108.4-938.5 53.49-1337 96.63-237.6 281.7-222.8 390.8-4.2 96.02 192.3 100.5 372.1 143.7 594.5l390.8 3.11c17.8-170.4-115.7-556.6-260.8-715.3-139.6-152.7-374.2-219.7-545.6-138.6-455.8 215.5-495.6 1290-495.6 1740-0.14 659.7 124.3 1093 329.8 1642 158.9 424.8 324.9 695.5 306.6 1181-2.54 67.39-12.87 149.1-36.3 208.6-28.35 72.01-69.16 100.1-154.8 83.65zm1913-309.8c-50.57-362.2-89.91-436.4-111.3-855.7-15.89-311-7.98-627.5 27.45-931.6 54.43-467.2 183.9-726 324.5-1130 28.63-82.29 82.59-315.4 112.4-364.6l-0.51 3278-352.5 4.59zm-230.4-4047c-37.56-266.8 367.2-406.7 580.5-404.8 40.17 292.7-6.45 951.3-99.8 1252-109.9 354.4-268 621.4-420.9 937.1-148.2 306.1-256.2 669.4-306 1054-42.75 330-46.5 636.9-19.71 969.2 7.2 89.29 30.24 222.8 29.24 304.3-64.77 34.43-168.3 39.72-228.8 87.32-10.07 158.7 171.2 388.3 220.4 403.2 17.71-96.21-36.16-122.7 42.22-227.7 200.8-269.1 720.7-321.6 1060-130.2 162.4 91.51 226.1 181.6 201.6 359.9 45.61-14.66 50.11-30.2 93.04-87.58 63.68-85.1 147.8-207 132.7-321.6-108.8-49.07-280.2-89.97-303.9-102.7l2.44-4498 157.2 0.2-4.7-80.05-1360-0.26c-28.96 185.7 149 478 223.8 485.2zm-9952 4381c-72.13-276.8-94.96-644-116.7-940.6-45.38-619.1-7.46-1314 190.2-1891 46.58-136.1 93.64-253.7 140.6-382.5 37.61-103.2 84.75-325.1 125.4-401.9l-2.77 3617-336.6-1.2zm739-4785 157.7-5.94-2.01-74.36-1364-0.88c-14.31 97 26.5 219.1 65.4 294 31.09 59.92 104.2 181.7 160.3 193.4-12.91-95.66 15.02-145.2 59.74-194.2 105.8-116 342.2-211.7 523.8-213.3-11.22 500.6 25.23 844.6-126.3 1311-139.8 430-280.7 607-434.2 991-255 637.6-350.5 1463-287.5 2167 7.95 88.85 33.89 235.6 32.01 318l-144.4 4.77 0.62 76.09 1516-4.31 0.26-74.61-159.4-3.28 2.16-4784zm13300 3556c0-450.4 9.58-919.2 123.9-1349 44.42-167.1 107.2-318.1 161.3-478l157.3-484.2-1.06 3540-315.2 1.11c-83.48-274-126.3-923.2-126.3-1229zm290.9-3542c127.6-59.62 152.4 131.5 152.2 223.5-0.36 157.8 21.93 839.1-57.72 931.3-108.3 125.4-349.2-122.3-334.2-601.3 6.01-192.5 56.4-467.8 239.8-553.4zm61.77 1312c-204.8 570.6-451.7 786.5-625 1552-139.2 615-172.5 1351-56.87 1985l1356 3.01 1.22-79.93-184.6-0.89c-11.76-107.7-2.59-1923-2.59-2083 0-698.6-0.1-1397 0-2096 0.05-319.7 35.94-681.6-324.4-724.9-142.4-17.1-318.2 35.16-428.4 87.36-472.1 223.5-568.7 1167-128.7 1404 181.7 97.94 293.7 7.93 393.8-47.07zm-2184 2746c11.42-81.05 168.2-322.5 232.8-405 64.88-82.9 138.8-105.1 156.9 19.08 6.13 41.99 5.31 83.59 5.28 132-0.13 216.5 10.28 849.1-2.67 970.7l-405.4-2.93-0.12-686.4c4.66-46.84 0.8-15.59 13.25-27.45zm6.52-177-10.3 40.61c-25.88-46.28-9.52-852.6-9.52-981 0-251.6-10.56-2840 2.46-2958l402.8 2.36c15.01 108.5-1.87 2739 3.15 3198 0.77 70.64 8.44 73.42-14.19 86.98-20.41 28.43-61.58 50.52-124.7 125.2-37.9 44.8-68.96 87.22-102.6 139.6-50.01 77.84-130.3 239-147 346zm940.8 971 0.41-79.76-158.5-0.92 3.17-4786 156.5-0.68-4.28-79.02-1512-0.52-2.27 80.09 160.9-0.11-3.29 4787-157.1-0.62 1.24 81.1 1515-0.53z"/>
 </g>
</svg>
